<svg width="256" height="256" viewBox="0 0 256 256" xmlns="http://www.w3.org/2000/svg">
  <circle cx="128" cy="128" r="120" fill="#2b2b2b"/>
  <!-- Rays -->
  <g stroke="#bdbdbd" stroke-width="4" stroke-linecap="round">
    <line x1="128" y1="10" x2="128" y2="30"/>
    <line x1="128" y1="226" x2="128" y2="246"/>
    <line x1="10" y1="128" x2="30" y2="128"/>
    <line x1="226" y1="128" x2="246" y2="128"/>
    <line x1="45" y1="45" x2="59" y2="59"/>
    <line x1="197" y1="197" x2="211" y2="211"/>
    <line x1="45" y1="211" x2="59" y2="197"/>
    <line x1="197" y1="59" x2="211" y2="45"/>
  </g>
  <!-- Inner circle -->
  <circle cx="128" cy="128" r="78" fill="#383838"/>
  <!-- Ears -->
  <polygon points="85,80 65,120 95,110" fill="#d8d8d8"/>
  <polygon points="171,80 191,120 161,110" fill="#d8d8d8"/>
  <!-- Face -->
  <ellipse cx="128" cy="145" rx="55" ry="42" fill="#d8d8d8"/>
  <!-- Mask -->
  <path d="M92 108C78 118 76 140 88 152C98 142 106 130 108 112Z" fill="#2b2b2b"/>
  <path d="M164 108C178 118 180 140 168 152C158 142 150 130 148 112Z" fill="#2b2b2b"/>
  <!-- Eyes -->
  <circle cx="108" cy="128" r="6" fill="#d8d8d8"/>
  <circle cx="148" cy="128" r="6" fill="#d8d8d8"/>
  <!-- Nose -->
  <polygon points="128,146 118,142 138,142" fill="#2b2b2b"/>
  <!-- Mouth -->
  <path d="M120 152 Q128 162 136 152" fill="none" stroke="#2b2b2b" stroke-width="4" stroke-linecap="round"/>
</svg>
